PathFileType	4	(X/Y/Z)	C:/Users/opensim2020/Desktop/walking_exp_matlab/subject01_walking09_straight_01.trc																																																																																																																															
DataRate	CameraRate	NumFrames	NumMarkers	Units	OrigDataRate	OrigDataStartFrame	OrigNumFrames																																																																																																																											
100	100	7	43	mm	100	772	485																																																																																																																											
Frame#	Time	LFHD			RFHD			LBHD			RBHD			C7			T10			CLAV			STRN			RBAK			LSHO			LUPA			LELB			LFRM			LWRA			LWRB			LFIN			RSHO			RUPA			RELB			RFRM			RWRA			RWRB			RFIN			LASI			RASI			LPSI			RPSI			LTHI			LKNE			LTIB			LANK			LHEE			LTOE			RTHI			RKNE			RTIB			RANK			RHEE			RTOE			*39			*40			*41			*42		
		X1	Y1	Z1	X2	Y2	Z2	X3	Y3	Z3	X4	Y4	Z4	X5	Y5	Z5	X6	Y6	Z6	X7	Y7	Z7	X8	Y8	Z8	X9	Y9	Z9	X10	Y10	Z10	X11	Y11	Z11	X12	Y12	Z12	X13	Y13	Z13	X14	Y14	Z14	X15	Y15	Z15	X16	Y16	Z16	X17	Y17	Z17	X18	Y18	Z18	X19	Y19	Z19	X20	Y20	Z20	X21	Y21	Z21	X22	Y22	Z22	X23	Y23	Z23	X24	Y24	Z24	X25	Y25	Z25	X26	Y26	Z26	X27	Y27	Z27	X28	Y28	Z28	X29	Y29	Z29	X30	Y30	Z30	X31	Y31	Z31	X32	Y32	Z32	X33	Y33	Z33	X34	Y34	Z34	X35	Y35	Z35	X36	Y36	Z36	X37	Y37	Z37	X38	Y38	Z38	X39	Y39	Z39	X40	Y40	Z40	X41	Y41	Z41	X42	Y42	Z42	X43	Y43	Z43
																																																																																																																																		
1	0	-1361.31543	1668.96497	-1061.25305	-1345.60718	1679.93652	-947.01111	-1456.21509	1587.89563	-1051.80249	-1443.88086	1595.48523	-931.69653	-1450.63782	1426.00232	-1000.83722	-1485.32605	1131.4646	-980.93695	-1304.01843	1361.4707	-1014.71259	-1266.32495	1203.7478	-1025.23303	-1495.26208	1233.96765	-912.16229	-1381.40466	1391.36047	-1165.53516	-1409.8551	1209.42444	-1250.27588	-1414.28503	1056.30664	-1258.08032	-1350.61975	960.04761	-1283.89075	-1244.82166	871.854	-1270.44153	-1296.59668	851.11829	-1291.38953	-1231.40588	799.9549	-1306.31824	-1351.46606	1388.65381	-856.5611	-1395.96265	1190.0238	-746.55396	-1398.53992	1066.05859	-747.99658	-1378.75073	947.73529	-721.09302	-1313.96606	822.85394	-746.95355	-1355.5155	827.5918	-706.05591	-1326.1073	746.18152	-709.81244	-1326.31848	919.80316	-1106.41309	-1290.66016	929.69958	-892.2746	-1501.97998	937.01501	-1024.14819	-1478.47327	945.98828	-880.62006	-1367.74377	591.73987	-1181.58545	-1383.57727	458.16907	-1175.98413	-1519.24219	330.45447	-1154.66553	-1637.7168	150.46983	-1089.44373	-1665.3844	137.94617	-1019.73627	-1557.26331	44.57467	-1149.59583	-1320.77283	597.15045	-834.98096	-1303.72656	440.40686	-870.39453	-1348.54651	268.39395	-868.33435	-1366.01245	66.59598	-924.76862	-1415.63599	27.75777	-974.77826	-1225.28235	29.84158	-929.36267	-1371.79834	1705.33411	-970.02039	1973.05334	1023.80475	-3101.88257	2012.45593	1021.95581	-3140.82129	NaN	NaN	NaN
2	0.01	-1356.90283	1669.28381	-1059.72668	-1341.32214	1680.31909	-945.41913	-1451.73694	1588.06177	-1050.27075	-1439.29956	1595.68225	-930.21387	-1445.95142	1426.13269	-999.6488	-1480.88403	1131.71936	-980.26563	-1299.05444	1361.48157	-1011.98077	-1259.76794	1204.34009	-1021.005	-1491.09827	1234.16882	-911.27765	-1376.25769	1391.66638	-1164.16577	-1404.95325	1209.62634	-1248.77417	-1409.87024	1056.60889	-1256.55676	-1346.86304	959.44403	-1282.29895	-1242.24939	870.35992	-1268.34265	-1293.97351	850.04773	-1289.25208	-1229.47278	798.43378	-1304.13806	-1347.30493	1388.79932	-855.13129	-1391.61597	1189.83435	-745.21844	-1393.50244	1065.89819	-746.56238	-1372.7572	947.55615	-719.84595	-1307.08752	823.29987	-745.81842	-1348.94287	827.8031	-705.04572	-1318.58496	746.70044	-708.57898	-1321.09131	920.19495	-1105.15906	-1286.93787	929.55029	-890.77509	-1497.39111	936.92993	-1024.32458	-1474.50171	945.59406	-880.58087	-1357.35938	592.46588	-1181.78052	-1371.6676	458.73358	-1176.25818	-1507.78113	331.82291	-1156.81873	-1628.67102	152.77495	-1091.7854	-1658.70239	141.30765	-1022.95618	-1546.1687	46.71379	-1148.02808	-1318.58398	596.73999	-834.4837	-1302.31616	439.93466	-869.5376	-1347.66797	268.22549	-868.34589	-1366.2981	66.77579	-924.80762	-1415.62183	27.95062	-974.86371	-1225.03174	29.7606	-929.3938	-1367.17566	1705.7699	-968.47052	1973.1521	1023.47534	-3101.93848	2012.6156	1022.04852	-3140.68408	NaN	NaN	NaN
3	0.02	-1352.48047	1669.50964	-1058.32361	-1336.98279	1680.52356	-944.01874	-1447.25232	1588.23254	-1048.85303	-1434.82166	1595.88501	-928.79169	-1441.4198	1426.45959	-998.54633	-1476.51367	1131.95508	-979.65424	-1294.91931	1361.83179	-1011.3432	-1255.23657	1204.4248	-1019.37012	-1487.00024	1234.34424	-910.52399	-1371.17615	1391.95459	-1162.86938	-1400.11475	1209.74329	-1247.37402	-1405.51855	1056.82593	-1255.13489	-1343.50964	959.16077	-1280.61255	-1239.86975	868.83917	-1266.38794	-1291.86218	849.13184	-1287.69788	-1227.95386	796.38916	-1301.78894	-1343.38062	1388.81702	-853.72632	-1387.22974	1189.6261	-744.03174	-1388.42712	1065.61499	-745.31763	-1366.84399	947.52789	-718.66022	-1300.13184	823.74597	-744.71936	-1341.66357	827.70294	-703.88232	-1310.92969	747.1203	-707.45648	-1316.06055	920.5498	-1104.04553	-1283.25574	929.42975	-889.26154	-1492.83899	936.89484	-1024.56921	-1469.15808	944.01788	-881.28693	-1347.198	593.38513	-1181.75391	-1359.85754	459.50983	-1176.26367	-1496.64734	333.51996	-1158.63831	-1619.08179	154.85457	-1094.38086	-1651.19397	144.21617	-1026.15869	-1534.80591	48.68748	-1146.87146	-1316.51038	596.53857	-834.07214	-1300.85205	439.52707	-869.20514	-1346.96216	268.1597	-868.29535	-1366.06921	66.71372	-924.82477	-1415.27417	27.7208	-974.97351	-1224.81921	29.62812	-929.55591	-1362.66113	1706.04724	-967.04242	1973.13232	1023.49554	-3101.89868	2012.55859	1022.02734	-3140.73389	NaN	NaN	NaN
4	0.03	-1348.03381	1669.80469	-1056.98718	-1332.58826	1680.96985	-942.7326	-1442.74512	1588.46191	-1047.50354	-1430.52954	1596.25574	-927.43774	-1437.04761	1427.03796	-997.53717	-1472.22119	1132.28589	-979.09644	-1290.41467	1361.99902	-1009.92712	-1250.74902	1204.59851	-1017.66248	-1482.94189	1234.57959	-909.7998	-1366.06494	1392.16772	-1161.63855	-1396.36414	1210.3374	-1247.07629	-1401.96826	1057.4032	-1254.34338	-1340.49951	959.06335	-1279.1947	-1237.68848	867.23181	-1264.44934	-1290.09131	848.47437	-1285.97632	-1226.47754	794.46588	-1299.74158	-1339.52344	1388.98999	-852.25128	-1382.86511	1189.44836	-742.86407	-1383.41272	1065.51465	-744.00177	-1360.7832	947.41473	-717.5451	-1293.0741	824.29364	-743.62982	-1335.04578	828.03058	-702.93115	-1303.14221	747.57721	-706.31702	-1311.10449	921.03076	-1102.92065	-1279.70325	929.39587	-887.89038	-1488.34766	936.97455	-1024.87195	-1465.81702	943.76398	-881.31921	-1337.28076	594.41327	-1181.47522	-1348.13489	460.39819	-1176.026	-1484.0033	333.05899	-1161.05164	-1608.82043	156.41165	-1096.5802	-1642.85266	146.42119	-1029.1095	-1522.43762	49.5739	-1145.79919	-1314.10791	596.26147	-833.77905	-1299.18713	439.35818	-868.96338	-1346.60828	268.17175	-868.35883	-1365.48914	66.48201	-925.1413	-1415.39172	27.74713	-974.9837	-1224.78613	29.57767	-929.73511	-1358.69934	1706.2478	-965.76886	1973.1377	1023.41663	-3101.91797	2012.54089	1021.99585	-3140.64111	NaN	NaN	NaN
5	0.04	-1343.53125	1670.11194	-1055.74414	-1328.08936	1681.26074	-941.49866	-1438.20581	1588.73486	-1046.24756	-1425.96973	1596.63892	-926.17438	-1432.36975	1427.22095	-996.49097	-1467.97229	1132.67651	-978.58472	-1286.06604	1362.33435	-1007.63885	-1246.71606	1204.65906	-1016.70074	-1478.86755	1234.88257	-909.10138	-1360.98108	1392.4563	-1160.44458	-1391.61096	1210.49512	-1245.71948	-1397.41504	1057.5437	-1252.49268	-1336.96326	958.3277	-1277.11792	-1235.68616	865.52692	-1262.61719	-1288.05188	846.98712	-1283.88013	-1225.31812	792.54828	-1297.76807	-1335.52039	1389.0752	-851.02997	-1378.51318	1189.34583	-741.81036	-1378.27869	1065.3606	-742.80212	-1354.73938	947.43427	-716.49988	-1286.04065	824.89783	-742.75702	-1327.67224	828.15076	-701.95581	-1295.39575	748.35223	-705.1377	-1306.00085	921.66852	-1101.84375	-1276.11853	929.30939	-886.37988	-1483.81519	937.06049	-1025.15125	-1462.50305	943.52551	-881.36395	-1327.51599	595.47449	-1180.80396	-1336.40906	461.26038	-1175.59717	-1471.56799	332.81357	-1162.73853	-1598.71204	157.82312	-1098.86536	-1633.68469	147.7168	-1031.72546	-1510.33655	50.23777	-1144.82874	-1311.73071	595.94031	-833.55737	-1297.5791	438.94217	-868.84515	-1345.20862	267.91144	-868.53571	-1365.37451	66.5414	-925.32526	-1415.16272	27.9614	-975.16046	-1224.46753	29.37254	-929.76178	-1354.30798	1706.61426	-964.57233	1973.09399	1023.55524	-3101.91162	2012.54724	1022.04364	-3140.7981	NaN	NaN	NaN
6	0.05	-1338.95679	1670.36682	-1054.55286	-1323.55994	1681.5929	-940.39166	-1433.6731	1589.02588	-1045.08655	-1421.39636	1596.96594	-925.00421	-1428.04126	1427.7699	-995.55035	-1463.73816	1133.06555	-978.10016	-1281.62842	1362.58936	-1006.07971	-1242.44092	1204.80859	-1015.24506	-1474.82373	1235.20679	-908.44373	-1355.97278	1392.73804	-1159.30664	-1386.88525	1210.68274	-1244.39514	-1392.88953	1057.71448	-1250.67419	-1334.00488	957.94812	-1275.63647	-1233.87158	863.85632	-1260.86682	-1286.67908	846.24243	-1282.552	-1224.44019	790.73584	-1295.88696	-1331.53931	1389.2522	-849.80225	-1374.07104	1189.30188	-740.84833	-1373.23547	1065.32739	-741.67694	-1348.57727	947.42578	-715.51306	-1278.90088	825.64417	-741.87579	-1320.52222	828.45764	-701.1311	-1287.5553	749.19537	-704.09906	-1301.02197	922.35565	-1100.7677	-1272.58105	929.3526	-885.05267	-1479.35962	937.27179	-1025.43652	-1460.771	944.50311	-880.74304	-1318.11096	596.54468	-1180.00195	-1324.67664	462.18332	-1174.78491	-1459.229	332.47653	-1164.14954	-1587.37231	158.03815	-1100.65881	-1623.68896	148.2153	-1034.10876	-1498.42322	51.57256	-1145.0437	-1309.43274	595.51398	-833.43451	-1295.80957	438.61789	-869.15576	-1344.41748	268.0126	-868.71777	-1365.14038	66.5149	-925.50684	-1414.96814	28.02257	-975.29401	-1224.41479	29.4195	-929.99695	-1349.46021	1707.17139	-963.35822	1973.03796	1023.37915	-3101.83789	2012.5459	1022.04016	-3140.78662	NaN	NaN	NaN
7	0.06	-1334.42786	1670.71814	-1053.45618	-1319.27319	1682.30347	-938.93988	-1429.12048	1589.3313	-1044.00806	-1417.15125	1597.36475	-923.89398	-1423.573	1428.11731	-994.64514	-1459.54004	1133.42065	-977.67188	-1276.99805	1362.57361	-1005.47443	-1237.83911	1205.06067	-1013.2876	-1470.74365	1235.47156	-907.80768	-1351.09741	1393.00745	-1158.23022	-1382.21069	1210.8573	-1243.15173	-1388.41492	1057.87195	-1248.93665	-1331.21838	957.66882	-1274.44495	-1231.63843	862.05432	-1258.76453	-1284.85522	844.91266	-1280.39905	-1223.78943	788.84106	-1293.88782	-1327.61829	1389.45557	-848.68854	-1369.65442	1189.31689	-739.93359	-1368.16992	1065.23657	-740.68158	-1342.63037	947.62085	-714.61871	-1271.75012	826.42688	-741.14844	-1313.86609	829.03204	-700.40363	-1279.70544	750.03961	-703.09991	-1296.04504	923.15833	-1099.73926	-1268.70654	929.3894	-883.68488	-1474.9187	937.5058	-1025.76929	-1456.19556	943.34515	-881.58868	-1308.94556	597.51318	-1178.92859	-1313.56555	462.93814	-1174.10828	-1447.08679	332.01852	-1165.25757	-1576.04138	158.12779	-1102.47864	-1613.33569	147.86353	-1036.33105	-1485.65613	52.6044	-1145.70288	-1307.18506	595.37366	-833.25891	-1293.98438	438.39517	-868.46619	-1343.92273	268.10049	-868.75757	-1364.61377	66.17899	-925.71246	-1414.96667	28.12263	-975.42902	-1224.27209	29.3591	-930.12415	-1344.82813	1707.44263	-962.31287	1973.09619	1023.4776	-3101.86426	2012.47681	1021.96307	-3140.76953	NaN	NaN	NaN
